<svg xmlns="http://www.w3.org/2000/svg" xmlns:xlink="http://www.w3.org/1999/xlink" width="500" zoomAndPan="magnify" viewBox="0 0 375 374.999991" height="500" preserveAspectRatio="xMidYMid meet" version="1.0"><defs><clipPath id="21e5ed34e8"><path d="M 51 68 L 135 68 L 135 286.050781 L 51 286.050781 Z M 51 68 " clip-rule="nonzero"/></clipPath><clipPath id="696b1f1b31"><path d="M 78 68 L 162 68 L 162 286.050781 L 78 286.050781 Z M 78 68 " clip-rule="nonzero"/></clipPath><clipPath id="e2fb3ee6fd"><path d="M 102 68 L 187 68 L 187 286.050781 L 102 286.050781 Z M 102 68 " clip-rule="nonzero"/></clipPath><clipPath id="2010d90780"><path d="M 129 68 L 213 68 L 213 286.050781 L 129 286.050781 Z M 129 68 " clip-rule="nonzero"/></clipPath></defs><g clip-path="url(#21e5ed34e8)"><path fill="#000000" d="M 80.085938 117.308594 C 54.414062 160.851562 51.324219 166.386719 51.855469 167.398438 C 53.613281 170.699219 114.4375 273.808594 115.714844 275.617188 C 119.605469 281.367188 126.902344 286.050781 131.855469 286.050781 L 134.359375 286.050781 L 134.359375 280.730469 C 134.359375 275.511719 134.304688 275.40625 133.132812 275.40625 C 131.269531 275.40625 127.167969 272.585938 125.355469 270.027344 C 124.449219 268.804688 110.285156 245.011719 93.878906 217.0625 L 64 166.332031 L 91.214844 120.183594 C 117.792969 74.988281 118.378906 73.921875 117.3125 73.125 C 116.726562 72.699219 114.597656 71.421875 112.574219 70.304688 L 108.898438 68.335938 Z M 80.085938 117.308594 " fill-opacity="1" fill-rule="nonzero"/></g><g clip-path="url(#696b1f1b31)"><path fill="#000000" d="M 135.210938 69.503906 C 132.546875 73.605469 78.433594 165.960938 78.433594 166.386719 C 78.433594 166.652344 92.761719 191.246094 110.230469 221.003906 C 140.640625 272.691406 142.238281 275.300781 146.074219 279.183594 C 150.65625 283.816406 154.011719 285.625 158.429688 285.945312 L 161.519531 286.160156 L 161.519531 280.78125 C 161.519531 275.726562 161.46875 275.40625 160.453125 275.40625 C 158.589844 275.40625 155.34375 273.4375 153.210938 270.933594 C 150.761719 268.167969 91.484375 167.558594 91.535156 166.28125 C 91.535156 165.695312 135.742188 89.894531 144.53125 75.414062 L 145.542969 73.765625 L 141.175781 71.261719 C 138.726562 69.878906 136.59375 68.652344 136.382812 68.492188 C 136.167969 68.386719 135.636719 68.867188 135.210938 69.503906 Z M 135.210938 69.503906 " fill-opacity="1" fill-rule="nonzero"/></g><g clip-path="url(#e2fb3ee6fd)"><path fill="#000000" d="M 131.269531 117.359375 L 102.453125 166.386719 L 133.613281 219.40625 C 150.816406 248.628906 165.886719 273.96875 167.164062 275.777344 C 171.585938 281.953125 177.925781 286.050781 183.195312 286.050781 L 186.074219 286.050781 L 185.914062 280.886719 L 185.753906 275.726562 L 184.050781 275.351562 C 181.867188 274.925781 180.425781 273.96875 177.871094 271.359375 C 176.699219 270.136719 164.394531 249.855469 147.832031 221.640625 C 132.386719 195.453125 118.753906 172.296875 117.527344 170.21875 L 115.289062 166.386719 L 142.1875 120.714844 C 156.992188 95.535156 169.191406 74.617188 169.347656 74.191406 C 169.507812 73.550781 165.410156 70.890625 160.453125 68.441406 C 160.296875 68.386719 147.140625 90.371094 131.269531 117.359375 Z M 131.269531 117.359375 " fill-opacity="1" fill-rule="nonzero"/></g><g clip-path="url(#2010d90780)"><path fill="#000000" d="M 186.125 70.039062 C 182.609375 75.839844 129.988281 165.429688 129.777344 165.960938 C 129.5625 166.546875 187.296875 265.292969 192.996094 274.179688 C 197.417969 280.996094 204.714844 286.050781 210.148438 286.050781 L 212.648438 286.050781 L 212.648438 280.730469 C 212.648438 275.457031 212.648438 275.40625 211.371094 275.40625 C 209.292969 275.40625 205.085938 272.160156 202.742188 268.75 C 201.570312 266.996094 187.457031 243.253906 171.425781 215.945312 L 142.292969 166.332031 L 169.457031 120.128906 C 195.980469 75.199219 196.671875 73.921875 195.605469 73.125 C 195.019531 72.699219 192.890625 71.421875 190.867188 70.304688 L 187.191406 68.335938 Z M 186.125 70.039062 " fill-opacity="1" fill-rule="nonzero"/></g><path fill="#000000" d="M 212.757812 70.089844 C 207.539062 78.554688 156.726562 165.960938 156.726562 166.386719 C 156.726562 166.652344 170.949219 191.246094 188.308594 221.003906 C 218.347656 272.53125 220.054688 275.246094 223.835938 279.132812 C 229.480469 284.933594 231.503906 285.785156 239.28125 285.785156 C 244.980469 285.785156 245.617188 285.679688 248.546875 284.242188 C 255.417969 280.886719 255.257812 281.101562 288.757812 223.71875 C 305.589844 194.917969 319.703125 170.859375 320.078125 170.273438 C 320.660156 169.261719 320.394531 168.996094 316.242188 166.652344 C 313.738281 165.269531 311.5 164.152344 311.289062 164.152344 C 311.074219 164.152344 297.226562 187.519531 280.558594 216.105469 C 263.300781 245.597656 249.1875 269.175781 247.910156 270.613281 C 244.820312 274.128906 242.476562 275.511719 239.601562 275.511719 C 236.5625 275.511719 233.527344 273.914062 230.972656 270.933594 C 228.894531 268.59375 169.507812 167.503906 169.507812 166.386719 C 169.507812 165.90625 215.3125 87.070312 222.289062 75.46875 L 223.300781 73.765625 L 219.734375 71.6875 C 213.503906 68.015625 213.929688 68.121094 212.757812 70.089844 Z M 212.757812 70.089844 " fill-opacity="1" fill-rule="nonzero"/><path fill="#000000" d="M 197.523438 175.96875 C 194.328125 181.558594 191.71875 186.402344 191.71875 186.722656 C 191.71875 187.199219 196.886719 196.464844 197.472656 197.046875 C 197.628906 197.207031 209.878906 175.96875 211.746094 172.296875 L 212.648438 170.644531 L 208.28125 168.195312 C 205.9375 166.867188 203.863281 165.75 203.648438 165.75 C 203.488281 165.75 200.71875 170.328125 197.523438 175.96875 Z M 197.523438 175.96875 " fill-opacity="1" fill-rule="nonzero"/><path fill="#000000" d="M 229.480469 166.917969 C 227.722656 169.742188 205.195312 210.144531 205.195312 210.515625 C 205.195312 211.046875 211.160156 221.75 211.320312 221.535156 C 212.117188 220.417969 239.28125 171.65625 239.28125 171.285156 C 239.28125 170.859375 231.238281 165.75 230.546875 165.75 C 230.386719 165.75 229.90625 166.28125 229.480469 166.917969 Z M 229.480469 166.917969 " fill-opacity="1" fill-rule="nonzero"/><path fill="#000000" d="M 237.683594 199.019531 L 218.457031 232.289062 L 221.542969 237.609375 C 223.886719 241.710938 224.738281 242.773438 225.21875 242.242188 C 225.859375 241.550781 265.699219 172.773438 266.175781 171.496094 C 266.390625 170.964844 265.164062 170.007812 262.023438 168.25 C 259.574219 166.867188 257.441406 165.75 257.28125 165.75 C 257.121094 165.75 248.28125 180.707031 237.683594 199.019531 Z M 237.683594 199.019531 " fill-opacity="1" fill-rule="nonzero"/><path fill="#000000" d="M 264.152344 199.179688 C 253.394531 217.542969 241.730469 237.398438 238.269531 243.253906 L 231.929688 254.007812 L 238.320312 264.867188 L 239.546875 262.84375 C 252.914062 240.273438 293.605469 170.910156 293.5 170.804688 C 292.699219 170.167969 284.605469 165.75 284.230469 165.75 C 283.964844 165.800781 274.964844 180.8125 264.152344 199.179688 Z M 264.152344 199.179688 " fill-opacity="1" fill-rule="nonzero"/></svg>