<svg xmlns="http://www.w3.org/2000/svg" xmlns:xlink="http://www.w3.org/1999/xlink" width="500" zoomAndPan="magnify" viewBox="0 0 375 374.999991" height="500" preserveAspectRatio="xMidYMid meet" version="1.0"><defs><clipPath id="0cb5d64def"><path d="M 51 68 L 135 68 L 135 286.050781 L 51 286.050781 Z M 51 68 " clip-rule="nonzero"/></clipPath><clipPath id="286e17c5a1"><path d="M 78 68 L 162 68 L 162 286.050781 L 78 286.050781 Z M 78 68 " clip-rule="nonzero"/></clipPath><clipPath id="e0aa280fd6"><path d="M 102 68 L 187 68 L 187 286.050781 L 102 286.050781 Z M 102 68 " clip-rule="nonzero"/></clipPath><clipPath id="75225ded93"><path d="M 129 68 L 213 68 L 213 286.050781 L 129 286.050781 Z M 129 68 " clip-rule="nonzero"/></clipPath></defs><g clip-path="url(#0cb5d64def)"><path fill="#ffffff" d="M 80.074219 117.3125 C 54.414062 160.859375 51.324219 166.398438 51.855469 167.410156 C 53.613281 170.710938 114.410156 273.832031 115.6875 275.640625 C 119.574219 281.390625 126.867188 286.074219 131.820312 286.074219 L 134.320312 286.074219 L 134.320312 280.75 C 134.320312 275.535156 134.269531 275.429688 133.097656 275.429688 C 131.234375 275.429688 127.132812 272.605469 125.324219 270.050781 C 124.417969 268.828125 110.257812 245.03125 93.859375 217.078125 L 63.996094 166.34375 L 91.199219 120.1875 C 117.765625 74.988281 118.351562 73.925781 117.285156 73.125 C 116.699219 72.699219 114.570312 71.421875 112.546875 70.304688 L 108.875 68.335938 Z M 80.074219 117.3125 " fill-opacity="1" fill-rule="nonzero"/></g><g clip-path="url(#286e17c5a1)"><path fill="#ffffff" d="M 135.171875 69.503906 C 132.511719 73.605469 78.421875 165.972656 78.421875 166.398438 C 78.421875 166.664062 92.742188 191.257812 110.203125 221.019531 C 140.601562 272.710938 142.199219 275.320312 146.035156 279.207031 C 150.613281 283.839844 153.964844 285.648438 158.386719 285.96875 L 161.472656 286.183594 L 161.472656 280.804688 C 161.472656 275.746094 161.417969 275.429688 160.40625 275.429688 C 158.542969 275.429688 155.296875 273.457031 153.167969 270.957031 C 150.71875 268.1875 91.464844 167.570312 91.519531 166.292969 C 91.519531 165.707031 135.707031 89.894531 144.488281 75.414062 L 145.5 73.765625 L 141.136719 71.261719 C 138.6875 69.878906 136.558594 68.652344 136.34375 68.492188 C 136.132812 68.386719 135.597656 68.867188 135.171875 69.503906 Z M 135.171875 69.503906 " fill-opacity="1" fill-rule="nonzero"/></g><g clip-path="url(#e0aa280fd6)"><path fill="#ffffff" d="M 131.234375 117.367188 L 102.433594 166.398438 L 133.574219 219.421875 C 150.773438 248.648438 165.839844 273.992188 167.117188 275.800781 C 171.535156 281.976562 177.871094 286.074219 183.140625 286.074219 L 186.015625 286.074219 L 185.695312 275.746094 L 183.992188 275.375 C 181.808594 274.949219 180.371094 273.992188 177.816406 271.382812 C 176.644531 270.15625 164.347656 249.875 147.789062 221.65625 C 132.351562 195.464844 118.722656 172.308594 117.5 170.230469 L 115.261719 166.398438 L 142.148438 120.71875 C 156.949219 95.539062 169.140625 74.617188 169.296875 74.191406 C 169.457031 73.550781 165.359375 70.890625 160.40625 68.441406 C 160.25 68.386719 147.097656 90.375 131.234375 117.367188 Z M 131.234375 117.367188 " fill-opacity="1" fill-rule="nonzero"/></g><g clip-path="url(#75225ded93)"><path fill="#ffffff" d="M 186.066406 70.039062 C 182.554688 75.839844 129.957031 165.4375 129.742188 165.972656 C 129.53125 166.558594 187.238281 265.3125 192.9375 274.203125 C 197.355469 281.019531 204.648438 286.074219 210.078125 286.074219 L 212.582031 286.074219 L 212.582031 280.75 C 212.582031 275.480469 212.582031 275.429688 211.304688 275.429688 C 209.226562 275.429688 205.019531 272.179688 202.679688 268.773438 C 201.507812 267.015625 187.398438 243.273438 171.375 215.960938 L 142.253906 166.34375 L 169.40625 120.132812 C 195.917969 75.203125 196.609375 73.925781 195.542969 73.125 C 194.957031 72.699219 192.828125 71.421875 190.804688 70.304688 L 187.132812 68.335938 Z M 186.066406 70.039062 " fill-opacity="1" fill-rule="nonzero"/></g><path fill="#ffffff" d="M 212.6875 70.089844 C 207.46875 78.554688 156.679688 165.972656 156.679688 166.398438 C 156.679688 166.664062 170.894531 191.257812 188.25 221.019531 C 218.277344 272.554688 219.980469 275.269531 223.761719 279.15625 C 229.402344 284.957031 231.425781 285.808594 239.199219 285.808594 C 244.894531 285.808594 245.535156 285.703125 248.460938 284.265625 C 255.332031 280.910156 255.171875 281.125 288.65625 223.734375 C 305.480469 194.933594 319.585938 170.871094 319.960938 170.285156 C 320.546875 169.273438 320.28125 169.007812 316.128906 166.664062 C 313.625 165.28125 311.390625 164.160156 311.175781 164.160156 C 310.964844 164.160156 297.121094 187.53125 280.457031 216.121094 C 263.210938 245.613281 249.101562 269.199219 247.824219 270.636719 C 244.734375 274.148438 242.394531 275.535156 239.519531 275.535156 C 236.484375 275.535156 233.449219 273.9375 230.894531 270.957031 C 228.816406 268.613281 169.457031 167.515625 169.457031 166.398438 C 169.457031 165.917969 215.242188 87.074219 222.214844 75.46875 L 223.226562 73.765625 L 219.660156 71.6875 C 213.433594 68.015625 213.859375 68.121094 212.6875 70.089844 Z M 212.6875 70.089844 " fill-opacity="1" fill-rule="nonzero"/><path fill="#ffffff" d="M 197.460938 175.980469 C 194.265625 181.570312 191.65625 186.414062 191.65625 186.734375 C 191.65625 187.214844 196.820312 196.476562 197.40625 197.0625 C 197.566406 197.222656 209.8125 175.980469 211.675781 172.308594 L 212.582031 170.65625 L 208.214844 168.207031 C 205.871094 166.875 203.796875 165.757812 203.582031 165.757812 C 203.421875 165.757812 200.65625 170.335938 197.460938 175.980469 Z M 197.460938 175.980469 " fill-opacity="1" fill-rule="nonzero"/><path fill="#ffffff" d="M 229.402344 166.929688 C 227.648438 169.75 205.128906 210.160156 205.128906 210.53125 C 205.128906 211.0625 211.089844 221.765625 211.25 221.550781 C 212.046875 220.433594 239.199219 171.667969 239.199219 171.296875 C 239.199219 170.871094 231.160156 165.757812 230.46875 165.757812 C 230.308594 165.757812 229.828125 166.292969 229.402344 166.929688 Z M 229.402344 166.929688 " fill-opacity="1" fill-rule="nonzero"/><path fill="#ffffff" d="M 237.601562 199.03125 L 218.382812 232.304688 L 221.472656 237.628906 C 223.8125 241.730469 224.664062 242.792969 225.144531 242.261719 C 225.785156 241.570312 265.605469 172.785156 266.085938 171.507812 C 266.296875 170.976562 265.074219 170.019531 261.929688 168.261719 C 259.484375 166.875 257.351562 165.757812 257.195312 165.757812 C 257.035156 165.757812 248.195312 180.71875 237.601562 199.03125 Z M 237.601562 199.03125 " fill-opacity="1" fill-rule="nonzero"/><path fill="#ffffff" d="M 264.0625 199.191406 C 253.308594 217.558594 241.648438 237.417969 238.1875 243.273438 L 231.851562 254.027344 L 238.242188 264.886719 L 239.464844 262.863281 C 252.828125 240.292969 293.5 170.921875 293.394531 170.816406 C 292.597656 170.175781 284.503906 165.757812 284.132812 165.757812 C 283.867188 165.8125 274.867188 180.824219 264.0625 199.191406 Z M 264.0625 199.191406 " fill-opacity="1" fill-rule="nonzero"/></svg>